<svg width="24" height="24" viewBox="0 0 24 24" fill="none" xmlns="http://www.w3.org/2000/svg">
<path d="M12.0142 1.99902C6.49116 1.99902 2.01416 6.47602 2.01416 11.999C2.01416 13.271 2.27615 14.56 2.73315 15.718L3.51416 17.311C4.00916 18.34 3.83517 19.31 3.17017 20.499C2.80317 21.157 3.26116 21.95 4.01416 21.968C5.03116 21.991 6.72116 21.667 8.01416 21.187C9.20816 21.738 10.6822 21.999 12.0142 21.999C17.5372 21.999 22.0142 17.522 22.0142 11.999C22.0142 6.47602 17.5372 1.99902 12.0142 1.99902ZM12.0142 3.99902C16.4322 3.99902 20.0142 7.58102 20.0142 11.999C20.0142 16.417 16.4322 19.999 12.0142 19.999C10.8642 19.999 9.41916 19.703 8.51416 19.218C8.24616 19.074 7.91816 19.036 7.63916 19.155C7.00116 19.428 6.35715 19.633 5.60815 19.78C5.90815 18.729 5.81917 17.526 5.29517 16.437L4.54517 14.905C4.21217 14.053 4.01416 13.019 4.01416 11.999C4.01416 7.58102 7.59616 3.99902 12.0142 3.99902ZM8.01416 10.999C7.46216 10.999 7.01416 11.447 7.01416 11.999C7.01416 12.551 7.46216 12.999 8.01416 12.999C8.56616 12.999 9.01416 12.551 9.01416 11.999C9.01416 11.447 8.56616 10.999 8.01416 10.999ZM12.0142 10.999C11.4622 10.999 11.0142 11.447 11.0142 11.999C11.0142 12.551 11.4622 12.999 12.0142 12.999C12.5662 12.999 13.0142 12.551 13.0142 11.999C13.0142 11.447 12.5662 10.999 12.0142 10.999ZM16.0142 10.999C15.4622 10.999 15.0142 11.447 15.0142 11.999C15.0142 12.551 15.4622 12.999 16.0142 12.999C16.5662 12.999 17.0142 12.551 17.0142 11.999C17.0142 11.447 16.5662 10.999 16.0142 10.999Z" fill="#5F527A"/>
</svg>
